<?xml version="1.0" encoding="UTF-8" standalone="no"?>
<!DOCTYPE svg PUBLIC "-//W3C//DTD SVG 1.1//EN" "http://www.w3.org/Graphics/SVG/1.1/DTD/svg11.dtd">
<svg xmlns="http://www.w3.org/2000/svg" xmlns:xlink="http://www.w3.org/1999/xlink" version="1.1" width="800pt" height="800pt" viewBox="0 0 800 800">
<g enable-background="new">
<g id="Layer-1" data-name="Layer">
<clipPath id="cp0">
<path transform="matrix(1,0,0,-1,0,800)" d="M 0 800 L 800 800 L 800 0 L 0 0 Z "/>
</clipPath>
<g clip-path="url(#cp0)">
<path transform="matrix(1,0,0,-1,765.8818,396.1904)" d="M 0 0 C 0 -67.397 .092 -134.794 -.055 -202.191 C -.099 -222.563 -1.592 -242.834 -5.761 -262.875 C -12.263 -294.133 -29.437 -318.488 -53.638 -338.483 C -73.146 -354.602 -95.73 -363.266 -120.632 -366.479 C -138.199 -368.747 -155.838 -369.7 -173.538 -369.7 C -304.846 -369.701 -436.154 -369.792 -567.462 -369.603 C -586.921 -369.574 -606.33 -367.89 -625.473 -363.872 C -647.739 -359.199 -666.913 -348.645 -683.709 -333.595 C -701.653 -317.517 -715.363 -298.52 -722.705 -275.322 C -726.901 -262.063 -728.959 -248.403 -730.086 -234.582 C -731.845 -213.009 -731.778 -191.39 -731.774 -169.77 C -731.754 -46.774 -731.878 76.221 -731.662 199.216 C -731.622 222 -729.613 244.71 -723.155 266.757 C -718.564 282.43 -710.304 296.166 -700.127 308.76 C -684.914 327.585 -666.34 342.058 -643.677 350.909 C -630.787 355.943 -617.255 358.377 -603.549 359.816 C -583.889 361.879 -564.158 362.1 -544.408 362.091 C -420.966 362.037 -297.524 362.035 -174.082 362.104 C -159.78 362.111 -145.5 362.013 -131.279 360.363 C -104.319 357.235 -78.585 350.438 -56.601 333.62 C -29.869 313.169 -12.355 286.71 -5.406 253.492 C -1.771 236.113 -.008 218.579 -.004 200.85 C .008 133.9 0 66.95 0 0 " fill="#2b6aff"/>
<path transform="matrix(1,0,0,-1,483.1904,369.5747)" d="M 0 0 C -3.978 -6.231 -7.974 -12.452 -11.931 -18.697 C -26.792 -42.156 -41.076 -65.969 -55.59 -89.642 C -60.184 -97.136 -65.666 -103.913 -72.847 -109.222 C -94.832 -125.478 -117.512 -108.98 -120.121 -89.851 C -121.814 -77.434 -123.167 -65.042 -123.218 -52.522 C -123.277 -38.042 -123.219 -23.563 -123.247 -9.084 C -123.251 -6.973 -123.453 -4.862 -123.563 -2.745 C -124.557 -2.773 -124.659 -3.51 -124.954 -3.998 C -152.34 -49.324 -181.123 -93.777 -209.146 -138.705 C -210.848 -141.432 -212.494 -144.197 -214.275 -146.871 C -215.099 -148.109 -215.098 -148.867 -213.976 -150.027 C -185.646 -179.316 -152.084 -199.088 -111.455 -205.342 C -62.19 -212.925 -17.323 -201.874 22.737 -172.034 C 27.603 -168.41 32.016 -164.185 36.82 -160.476 C 42.733 -155.913 49.23 -153.042 56.988 -154.857 C 58.063 -155.108 59.005 -155.5 59.823 -156.248 C 61.668 -157.936 63.42 -159.756 65.424 -161.234 C 71.413 -165.651 71.726 -171.59 70.077 -178.026 C 68.109 -185.708 62.739 -191.003 56.927 -195.833 C 29.698 -218.455 -.867 -234.542 -35.647 -241.879 C -102.258 -255.931 -162.916 -242.555 -216.478 -200.435 C -257.304 -168.329 -283.184 -126.304 -294.551 -75.553 C -300.449 -49.219 -301.013 -22.686 -297.089 4.037 C -284.898 87.072 -225.685 149.889 -159.405 175.12 C -137.84 183.33 -115.613 187.774 -92.549 188.539 C -67.548 189.368 -42.999 187.132 -19.062 179.462 C 13.292 169.096 41.789 152.259 66.24 128.684 C 99.589 96.528 120.515 57.556 129.317 12.134 C 133.612 -10.028 134.6 -32.421 131.059 -54.759 C 126.789 -81.699 104.935 -108.315 75.418 -113.963 C 46.24 -119.547 19.011 -104.465 7.196 -75.954 C 2.115 -63.692 .732 -50.779 .679 -37.661 C .63 -25.597 .67 -13.533 .667 -1.469 C .667 -1.052 .63 -.634 .61 -.217 C .407 -.145 .203 -.072 0 0 " fill="#fefefe"/>
<path transform="matrix(1,0,0,-1,399.4062,427.8857)" d="M 0 0 C 0 6.04 .005 12.08 0 18.119 C -.026 43.054 .109 67.989 -.162 92.921 C -.272 103.004 -2.528 112.652 -9.979 120.213 C -16.608 126.939 -26.773 128.837 -35.464 125.117 C -41.639 122.474 -46.434 118.162 -50.257 112.721 C -59.041 100.217 -66.418 86.814 -74.796 74.059 C -101.636 33.197 -126.549 -8.875 -152.994 -49.982 C -155.113 -53.275 -156.875 -53.332 -158.726 -49.659 C -160.927 -45.291 -162.821 -40.752 -164.6 -36.19 C -172.231 -16.625 -176.289 3.648 -176.557 24.677 C -177.113 68.271 -164.928 107.744 -137.415 141.791 C -110.405 175.215 -75.746 196.922 -33.3 204.722 C 27.99 215.984 81.161 198.906 125.494 155.608 C 153.066 128.679 169.112 95.268 175.473 57.236 C 177.83 43.147 178.447 28.973 176.951 14.792 C 175.855 4.418 171.616 -4.701 163.339 -11.38 C 156.487 -16.908 148.628 -19.979 139.928 -16.539 C 130.76 -12.915 126.056 -5.392 124.464 4.126 C 122.124 18.12 122.511 32.227 122.758 46.34 C 122.97 58.386 123.775 70.557 121.148 82.397 C 118.084 96.207 110.051 106.025 95.764 109.562 C 88.848 111.273 82.504 108.997 76.499 105.811 C 67.357 100.962 60.534 93.526 54.655 85.229 C 44.219 70.501 35.275 54.815 25.701 39.534 C 17.69 26.748 9.673 13.967 1.656 1.184 C 1.381 .744 1.087 .316 .803 -.117 Z " fill="#2b6aff"/>
</g>
</g>
</g>
</svg>
