<svg width="502" height="494" viewBox="0 0 502 494" fill="none" xmlns="http://www.w3.org/2000/svg">
<path d="M499 247C499 381.72 388.005 491 251 491C113.995 491 3 381.72 3 247C3 112.28 113.995 3 251 3C388.005 3 499 112.28 499 247Z" fill="#8247E5" stroke="#E5E5E5" stroke-width="5"/>
<path d="M381.505 146.294C388.293 125.271 376.754 102.726 355.731 95.9381C334.709 89.1491 311.288 101.85 304.5 122.872" stroke="#E5E5E5" stroke-width="12"/>
<path d="M149.794 340.807C143.004 361.83 154.542 384.376 175.564 391.166C196.586 397.955 220.007 385.257 226.797 364.235" stroke="#E5E5E5" stroke-width="12"/>
<path d="M304.921 121.527L226.5 364.5" stroke="#E5E5E5" stroke-width="12"/>
<path d="M336.602 211.298C323.843 176.27 285.104 158.218 250.076 170.977C215.048 183.737 196.996 222.476 209.755 257.503C222.515 292.531 261.254 310.583 296.281 297.824" stroke="#E5E5E5" stroke-width="15"/>
<path d="M401.5 137.5C401.5 146.337 394.337 153.5 385.5 153.5C376.663 153.5 369.5 146.337 369.5 137.5C369.5 128.663 376.663 121.5 385.5 121.5C394.337 121.5 401.5 128.663 401.5 137.5Z" fill="#E5E5E5"/>
<path d="M349.5 259.5C349.5 268.337 342.337 275.5 333.5 275.5C324.663 275.5 317.5 268.337 317.5 259.5C317.5 250.663 324.663 243.5 333.5 243.5C342.337 243.5 349.5 250.663 349.5 259.5Z" fill="#E5E5E5"/>
<path d="M149.5 355.5C158.337 355.5 165.5 348.337 165.5 339.5C165.5 330.663 158.337 323.5 149.5 323.5C140.663 323.5 133.5 330.663 133.5 339.5C133.5 348.337 140.663 355.5 149.5 355.5Z" fill="#E5E5E5"/>
</svg>
