<?xml version="1.0" encoding="utf-8"?>
<!-- Generator: Adobe Illustrator 25.0.1, SVG Export Plug-In . SVG Version: 6.00 Build 0)  -->
<svg version="1.0" id="Layer_1" xmlns="http://www.w3.org/2000/svg" xmlns:xlink="http://www.w3.org/1999/xlink" x="0px" y="0px"
	 viewBox="0 0 1062 710" style="enable-background:new 0 0 1062 710;" xml:space="preserve">
<style type="text/css">
	.st0{fill:#32343F;}
	.st1{fill:url(#SVGID_1_);}
	.st2{fill:url(#SVGID_2_);}
	.st3{fill:url(#SVGID_3_);}
</style>
<g>
	<g>
		<path class="st0" d="M604.4,302.6c0-0.9-0.3-1.4-1.2-1.4c-6.1,0-12.2,0-18.3,0c-0.9,0-1.3,0.4-1.3,1.3c0,2,0,3.9,0,6.5
			c-5.5-5.1-8.7-7.2-13.5-8.4c-12-3-22.6-0.2-31.6,8c-11.3,10.5-14.7,23.7-11.5,38.5c3.8,17.3,19.4,30.5,38.3,28.5
			c6.2-0.7,11.8-3,16.3-7.4c0.5-0.5,0.8-1.3,1.9-1.1c-0.1,4.2,0.3,8.3-0.5,12.5c-1.5,7.1-6.7,12-14.1,12.8c-7.7,0.9-15-1.3-18.4-8.5
			c-1-2.1-2.1-2.7-4.2-2.6c-3.9,0.2-7.8,0-11.7,0.1c-1.8,0-3.5-0.3-5.3,0.2c-0.2,1.4,0,2.6,0.3,3.8c2.7,10.9,9.8,17.9,20.1,21.7
			c10,3.7,20.2,3.8,30.3,0.7c12.1-3.6,19.7-11.6,22.8-23.8c1-3.9,1.4-7.8,1.4-11.9c0-22.6,0-45.2,0-67.8
			C604.4,303.8,604.4,303.2,604.4,302.6z M566.2,357.1c-12-0.1-19.3-9.2-19.3-19.4c0.1-11,8.2-19.2,19-19.3
			c11-0.1,19.2,8.2,19.2,19.4C585.2,348.7,577,357.2,566.2,357.1z"/>
		<path class="st0" d="M849.6,308.9c-12.9-12.5-32.9-12.6-44.2-0.5c-0.2,0.2-0.4,0.2-0.8-0.1c0-1.5-0.1-3.3,0-5s-0.6-2.1-2.2-2.1
			c-5,0.1-10.1,0-15.1,0c-4,0-3.5-0.4-3.5,3.5c0,33.4,0,66.9,0,100.3c0,0.4,0,0.8,0,1.3c0.1,2.1,0.1,2.2,2.3,2.2
			c5.4,0,10.7,0,16.1,0c2.3,0,2.4,0,2.4-2.5c0-11.1,0-22.3,0-33.4v-3.9c3.4,3.7,6.8,6.1,10.8,7.7c12.2,4.8,26.6,1.3,36-9
			c5.9-6.4,9.3-14,10.4-22.5C863.3,331,859.8,318.7,849.6,308.9z M839.9,346.4c-2.5,8-9.3,13-17.7,13c-9.6,0-17.1-6.2-18.8-15.8
			c-0.7-3.9-0.6-7.7,0.6-11.5c2.6-8.7,10-14.1,18.8-13.7c9,0.4,16,6.6,17.8,15.5C841.3,338.2,841.2,342.3,839.9,346.4z"/>
		<path class="st0" d="M619.2,205.4c7.9-9.1,17.5-11.2,28-9.3c12,2.2,18.7,10.1,21.6,21.6c0.9,3.6,1.3,7.2,1.3,10.9
			c0,13.8,0,27.5,0,41.3c0,0.3,0,0.6,0,0.9c0.2,1.5-0.4,2.2-1.9,2c-0.3,0-0.6,0-0.9,0c-5,0-10.1,0-15.1,0c-2.8,0-2.8,0.2-2.8-2.7
			c0-3.2,0-6.3,0-9.5c0-9.4,0-18.7,0-28.1c0-2.3-0.2-4.6-0.7-6.9c-1.9-9.6-10.5-13.9-19.5-9.9c-3.6,1.6-6.1,4.4-7.7,8
			c-1.8,4-2.3,8.3-2.3,12.6c0,10.7,0,21.4,0,32.2c0,0.5,0,1.1,0,1.6c0,2.6,0,2.6-2.5,2.6c-5.3,0-10.5,0-15.8,0c-0.1,0-0.2,0-0.3,0
			c-2.1-0.1-2.1-0.1-2.2-2.4c0-0.4,0-0.8,0-1.3c0-35.4,0-70.8,0-106.3c0-0.5,0.1-1.1,0-1.6c-0.2-1.7,0.6-2.1,2.2-2.1
			c5.4,0.1,10.7,0,16.1,0c2.5,0,2.6,0,2.6,2.6c0,13.2,0,26.5,0,39.7C619.2,202.6,619.2,203.6,619.2,205.4z"/>
		<path class="st0" d="M901.3,308.7c9.3-9.7,20.4-11.4,32.3-7.3c10.2,3.5,15.2,11.7,17.4,21.9c0.7,3.2,0.8,6.5,0.8,9.7
			c0,13.6,0,27.1,0,40.7c0,0.5,0,1.1,0,1.6c0,1-0.3,1.6-1.4,1.6c-6,0-12,0-18,0c-0.9,0-1.4-0.4-1.4-1.3c0-0.7,0-1.5,0-2.2
			c0-12.2,0-24.4,0-36.6c0-2.5-0.1-5-0.7-7.5c-1.2-4.9-3.6-8.9-8.7-10.3c-5.4-1.5-10.5-0.3-14.6,3.6c-4,3.7-5.4,8.7-5.8,13.9
			c-0.2,2.3-0.1,4.6-0.1,6.9c0,10.2,0,20.4,0,30.6c0,2.8,0,2.8-2.7,2.8c-5.3,0-10.5,0-15.8,0c-2.3,0-2.3,0-2.4-2.5
			c0-0.4,0-0.8,0-1.3c0-35.4,0-70.8,0-106.3c0-4.1-0.4-3.5,3.5-3.5c4.7,0,9.5,0,14.2,0c3.4,0,3.1-0.2,3.1,3c0,13,0,26.1,0,39.1
			C901.1,306.4,900.9,307.5,901.3,308.7z"/>
		<path class="st0" d="M759,301.1c-5.8,0-11.6,0.1-17.4,0c-1.5,0-1.8,0.6-1.7,1.9c0.1,1.8,0,3.5,0,5.9c-0.8-0.6-1-0.8-1.3-1
			c-5.8-6.1-13.1-8.7-21.3-8.4c-10.6,0.3-19.3,4.9-25.8,13.2c-8.5,10.8-10.8,23.1-7.8,36.3c2.5,11.2,8.6,20,18.8,25.6
			c11.6,6.4,27.5,5,36.3-4.8c0.2-0.2,0.5-0.4,1,0.1c0,1.5,0.1,3.3,0,5.1c-0.1,1.5,0.6,2,2.1,1.9c5-0.1,10.1,0,15.1,0
			c3.8,0,3.6,0.6,3.6-3.5c0-22.9,0-45.8,0-68.7c0-0.6,0-1.3,0-1.9C760.8,301.5,760.2,301.1,759,301.1z M740.6,346
			c-2.6,8.6-9.6,13.6-18.7,13.4c-8.6-0.2-15.5-5.8-17.6-14.4c-1.1-4.5-1-8.9,0.4-13.4c2.7-8.4,9.9-13.6,18.6-13.2
			c8.7,0.3,15.5,5.9,17.6,14.5c0.5,1.9,0.8,3.9,0.7,5.9C741.7,341.3,741.3,343.7,740.6,346z"/>
		<path class="st0" d="M765.4,225.8c-3.3-14-11.5-23.8-25.4-28.4c-6-2-12.1-2.5-18.4-1.6c-14.7,2-25.4,9.5-31.3,23.2
			c-3.2,7.5-3.9,15.4-2.4,23.5c2.3,12.6,8.7,22.4,20.5,27.8c14.8,6.8,29.4,5.7,43.2-3.1c5.9-3.8,10.2-9.1,12.9-15.5
			c0.4-1,1.1-2,0.9-3.5c-6.7,0-13.4,0-20.1,0c-1,0-1.5,0.6-1.9,1.3c-1.2,1.9-2.9,3.3-4.8,4.4c-4.2,2.3-8.7,3-13.4,2.5
			c-9.7-1-16.1-6.9-17.2-16.1c1.3-0.5,2.5-0.3,3.6-0.3c14.1,0,28.2,0,42.3,0c3.6,0,7.2,0,10.7,0c2.2,0,2.2-0.1,2.3-2.2
			C766.8,233.7,766.3,229.7,765.4,225.8z M708.8,226c1-8.1,8.9-13.9,18.2-13.7c8.4,0.2,15.8,6.4,16.4,13.7H708.8z"/>
		<path class="st0" d="M580.6,254.2c0,5.4,0,11,0,16.5c0,1.5-1,1.7-2,1.9c-3.5,0.9-7.1,1.1-10.6,1.1c-5.1,0-10.1-0.6-14.7-2.8
			c-8.1-3.7-12.7-10-14.3-18.7c-0.4-2.3-0.5-4.6-0.5-6.9c0-9.1,0-18.3,0-27.4c0-2.5,0-2.6-2.6-2.6c-3.6,0-7.1-0.1-10.7,0
			c-1.5,0-2-0.4-2-2c0.1-4.8,0.1-9.7,0-14.5c0-1.4,0.5-1.8,1.8-1.8c3.8,0.1,7.6-0.1,11.3,0.1c1.7,0,2.2-0.5,2.2-2.1
			c-0.1-5.5,0-10.9,0-16.4c0-2.4,0-2.5,2.4-2.5c5.5,0,10.9,0,16.4,0c1.5,0,2,0.4,2,2c-0.1,5.3,0,10.5,0,15.8c0,3.6-0.3,3.3,3.5,3.3
			c5.3,0,10.5,0,15.8,0c1.5,0,2.3,0.3,2.2,2.1c-0.1,4.7-0.1,9.5,0,14.2c0,1.8-0.7,2.1-2.2,2c-5.6-0.1-11.1,0-16.7,0
			c-2.4,0-2.5,0-2.5,2.4c0,8,0,16,0,23.9c0,1.7,0.2,3.4,0.5,5c0.8,4.3,3.3,6.9,7.5,7.9c3.9,0.9,7.7,0.6,11.5-0.3
			C579.3,254.1,579.8,253.9,580.6,254.2z"/>
		<path class="st0" d="M648.1,311.6c1.2-0.7,1.4-1.7,1.9-2.4c5-7.1,13.1-10.3,22.2-8.5c1,0.2,1.7,0.6,1.7,1.9c0,6.4,0,12.8,0,19.3
			c-1.7,0.1-3-0.5-4.4-0.8c-10.8-2.3-18.9,3.2-20.9,14.1c-0.4,2-0.5,3.9-0.5,5.9c0,10.6,0,21.2,0,31.8c0,0.6-0.1,1.3,0,1.9
			c0.2,1.7-0.7,2.1-2.2,2.1c-5.5-0.1-10.9,0-16.4,0c-2.2,0-2.2-0.1-2.2-2.3c0-23.7,0-47.5,0-71.2c0-1.6,0.4-2.2,2.1-2.2
			c5.6,0.1,11.1,0.1,16.7,0c1.7,0,2.1,0.7,2.1,2.2C648.1,305.9,648.1,308.6,648.1,311.6z"/>
	</g>
	<g>
		<g>
			
				<linearGradient id="SVGID_1_" gradientUnits="userSpaceOnUse" x1="169.5668" y1="550.1599" x2="357.7413" y2="317.5348" gradientTransform="matrix(1 0 0 -1 0 710)">
				<stop  offset="0" style="stop-color:#00D1E6"/>
				<stop  offset="1" style="stop-color:#2B4DD4"/>
			</linearGradient>
			<path class="st1" d="M266.2,435.3c-21.1,0-41.5-4.1-60.7-12.3c-18.6-7.9-35.3-19.1-49.6-33.4c-14.3-14.3-25.6-31-33.4-49.6
				c-8.1-19.3-12.3-39.7-12.3-60.7s4.1-41.5,12.3-60.7c7.9-18.6,19.1-35.3,33.4-49.6c14.3-14.3,31-25.6,49.6-33.4
				c19.3-8.1,39.7-12.3,60.7-12.3s41.5,4.1,60.7,12.3c18.6,7.9,35.3,19.1,49.6,33.4c14.3,14.3,25.6,31,33.4,49.6
				c8.1,19.3,12.3,39.7,12.3,60.7s-4.1,41.5-12.3,60.7c-7.9,18.6-19.1,35.3-33.4,49.6c-14.3,14.3-31,25.6-49.6,33.4
				C307.7,431.1,287.3,435.3,266.2,435.3z M266.2,173.7c-58.2,0-105.5,47.3-105.5,105.5s47.4,105.6,105.6,105.6
				s105.6-47.4,105.6-105.6C371.8,221,324.4,173.7,266.2,173.7z"/>
		</g>
		<g>
			
				<linearGradient id="SVGID_2_" gradientUnits="userSpaceOnUse" x1="343.7064" y1="691.0244" x2="531.8808" y2="458.3993" gradientTransform="matrix(1 0 0 -1 0 710)">
				<stop  offset="0" style="stop-color:#00D1E6"/>
				<stop  offset="1" style="stop-color:#2B4DD4"/>
			</linearGradient>
			<circle class="st2" cx="448.4" cy="148.4" r="24.6"/>
		</g>
		<g>
			
				<linearGradient id="SVGID_3_" gradientUnits="userSpaceOnUse" x1="102.643" y1="496.0241" x2="290.8174" y2="263.399" gradientTransform="matrix(1 0 0 -1 0 710)">
				<stop  offset="0" style="stop-color:#00D1E6"/>
				<stop  offset="1" style="stop-color:#2B4DD4"/>
			</linearGradient>
			<path class="st3" d="M292.1,590.9c-6.5,0-12.9-2.5-17.8-7.4c-9.9-9.9-9.9-25.8,0-35.7l105-105c9.9-9.9,25.8-9.9,35.7,0
				c9.9,9.9,9.9,25.8,0,35.7l-105,105C305,588.5,298.5,590.9,292.1,590.9z"/>
		</g>
	</g>
</g>
</svg>
